<?xml version="1.0" encoding="UTF-8"?>
<svg xmlns="http://www.w3.org/2000/svg" width="24" height="24" viewBox="0 0 24 24" fill="none" stroke="currentColor" stroke-width="2" stroke-linecap="round" stroke-linejoin="round">
  <path d="M15 10l-3 3l-3 -3"></path>
  <path d="M12 13l0 8"></path>
  <path d="M8 4l-2 -2"></path>
  <path d="M16 4l2 -2"></path>
  <path d="M9 18l-5 -5"></path>
  <path d="M15 18l5 -5"></path>
  <path d="M21 8a9 9 0 0 0 -9 -9"></path>
  <path d="M21 12a9 9 0 0 0 -9 -9"></path>
  <path d="M3 8a9 9 0 0 1 9 -9"></path>
  <path d="M3 12a9 9 0 0 1 9 -9"></path>
</svg>